<svg xmlns="http://www.w3.org/2000/svg" xmlns:xlink="http://www.w3.org/1999/xlink" width="500" zoomAndPan="magnify" viewBox="0 0 375 374.999991" height="500" preserveAspectRatio="xMidYMid meet" version="1.0"><defs><g/></defs><path fill="#33a630" d="M 296.898438 62.570312 C 324.605469 56.5625 347.902344 43.808594 366.78125 24.195312 C 374.996094 92.730469 368.007812 154.769531 345.695312 210.308594 C 332.453125 229.679688 311.363281 242.675781 282.554688 249.421875 C 310.015625 224.40625 327.183594 188.484375 327.183594 148.394531 C 327.179688 115.902344 315.902344 85.984375 296.898438 62.570312 Z M 296.898438 62.570312 " fill-opacity="1" fill-rule="evenodd"/><path fill="#33a630" d="M 47.148438 350.8125 C 59.410156 303.246094 86.996094 276.640625 129.785156 270.753906 C 84.914062 248.316406 54.140625 201.972656 54.140625 148.390625 C 54.140625 144.957031 54.261719 141.527344 54.507812 138.09375 C 14.046875 165.1875 -2.382812 197.066406 5.21875 233.847656 C 15.519531 266.09375 41.753906 279.949219 84.054688 275.410156 C 48.621094 300.546875 29.003906 327.765625 24.835938 357.3125 C 33.050781 359.273438 40.53125 357.191406 47.148438 350.8125 Z M 47.148438 350.8125 " fill-opacity="1" fill-rule="evenodd"/><path fill="#33a630" d="M 257.417969 137.234375 C 256.070312 138.707031 255.210938 137.480469 253.496094 139.199219 C 253.128906 139.566406 251.65625 142.140625 251.53125 143.121094 C 251.289062 146.183594 252.023438 145.449219 249.816406 147.414062 C 247.976562 148.882812 247.855469 148.761719 245.402344 149.25 C 243.6875 149.617188 243.933594 151.214844 242.582031 152.4375 C 240.621094 154.277344 241.359375 151.949219 240.007812 155.625 C 239.152344 157.957031 238.414062 156.851562 237.066406 158.691406 C 236.574219 159.304688 236.332031 160.285156 235.960938 160.773438 C 235.71875 161.019531 234.613281 161.878906 234.492188 162.125 L 234 164.085938 C 235.472656 165.066406 235.839844 164.574219 235.105469 166.78125 C 234.492188 168.621094 235.472656 169.480469 234.980469 171.195312 C 234.738281 171.808594 233.878906 173.035156 233.386719 174.382812 C 232.894531 176.097656 232.40625 176.097656 231.058594 176.957031 L 232.28125 180.144531 C 231.914062 180.269531 232.648438 180.144531 232.039062 180.023438 C 231.304688 179.898438 232.652344 180.023438 231.425781 179.898438 L 231.179688 182.230469 C 232.652344 183.453125 231.792969 184.066406 234.367188 183.453125 C 233.753906 184.679688 233.019531 184.3125 234 185.660156 L 234.125 185.785156 C 234.125 185.90625 234.246094 185.90625 234.246094 186.027344 L 235.105469 187.375 C 235.960938 188.847656 236.699219 188.601562 236.453125 190.5625 C 236.328125 191.789062 236.328125 192.402344 237.066406 193.261719 C 238.414062 194.488281 237.679688 193.261719 238.90625 195.222656 C 239.519531 196.203125 239.027344 195.589844 239.761719 196.203125 L 240.621094 197.1875 C 241.480469 198.535156 243.074219 199.636719 244.300781 200.863281 C 249.695312 199.148438 249.941406 199.148438 254.351562 201.355469 C 255.457031 200.863281 255.210938 200.742188 256.804688 200.621094 C 256.929688 200.621094 257.050781 200.621094 257.171875 200.621094 C 259.625 200.375 260.484375 199.394531 262.078125 199.269531 C 267.351562 199.027344 266.859375 200.742188 266.859375 204.175781 L 267.71875 204.050781 C 269.066406 204.050781 268.820312 204.050781 269.800781 204.175781 L 271.394531 204.296875 C 272.5 206.628906 272.621094 206.75 270.539062 209.691406 C 270.414062 209.816406 270.292969 209.9375 270.171875 210.183594 C 269.3125 211.777344 269.433594 211.777344 267.964844 213.617188 L 267.351562 214.351562 C 267.351562 216.191406 267.472656 218.519531 268.207031 219.746094 L 266.980469 227.226562 C 266.246094 228.941406 266.246094 227.960938 265.632812 229.0625 C 264.777344 230.78125 265.265625 231.761719 264.039062 233.109375 C 263.058594 234.089844 261.832031 234.582031 260.726562 235.929688 C 259.011719 236.054688 259.871094 237.644531 257.664062 238.996094 C 256.070312 239.976562 257.050781 239.363281 256.191406 240.589844 C 255.457031 241.691406 254.964844 241.445312 254.351562 242.304688 C 253.863281 243.039062 253.863281 244.265625 253.617188 245.617188 C 263.546875 244.757812 273.480469 243.285156 283.042969 240.832031 C 285.496094 238.257812 287.945312 235.5625 290.277344 232.863281 C 291.625 230.289062 292.117188 230.535156 292.605469 229.308594 C 293.464844 227.226562 295.179688 225.386719 296.652344 223.667969 C 297.265625 222.933594 298 222.320312 298.246094 221.828125 L 298.859375 220.972656 C 304.378906 212.632812 309.035156 203.5625 312.46875 194 C 312.59375 193.753906 312.59375 193.382812 312.714844 192.894531 C 312.714844 191.914062 312.957031 190.8125 312.835938 189.707031 C 312.46875 183.945312 313.203125 186.519531 313.328125 183.699219 C 313.449219 178.550781 313.570312 179.777344 314.0625 174.992188 L 313.816406 165.183594 C 313.449219 161.382812 313.695312 161.875 312.960938 157.707031 L 312.960938 156.234375 C 312.960938 155.742188 313.082031 155.742188 313.082031 155.742188 C 313.574219 156.476562 313.328125 157.089844 313.449219 158.074219 C 313.941406 161.75 314.675781 158.195312 315.289062 161.382812 C 315.414062 162.242188 315.414062 163.34375 315.414062 164.082031 C 315.535156 170.210938 316.515625 170.703125 315.78125 174.257812 C 315.042969 177.199219 316.269531 176.953125 314.796875 184.3125 C 314.675781 185.046875 314.308594 187.5 313.941406 189.828125 C 318.230469 176.832031 320.5625 162.855469 320.5625 148.386719 C 320.5625 137.476562 319.214844 126.929688 316.761719 116.878906 C 312.46875 99.46875 304.867188 83.40625 294.449219 69.429688 C 292.730469 69.0625 293.589844 69.0625 292.484375 67.957031 C 292.730469 69.671875 293.464844 69.183594 294.199219 70.53125 C 292.976562 70.164062 292.730469 70.164062 292.117188 69.183594 C 291.503906 68.203125 290.277344 65.996094 289.542969 65.503906 C 288.5625 64.648438 288.929688 65.261719 288.070312 64.15625 C 289.667969 64.523438 290.890625 65.996094 291.628906 66.117188 C 291.628906 65.996094 291.628906 65.875 291.75 65.875 C 289.910156 63.542969 288.070312 61.335938 286.109375 59.253906 C 285.25 58.640625 283.902344 57.65625 283.046875 57.289062 C 280.101562 55.695312 283.046875 55.574219 279.242188 55.453125 C 278.628906 53.488281 279.488281 54.101562 277.527344 53.121094 C 275.8125 52.265625 276.546875 53 274.953125 52.386719 C 275.445312 53.859375 275.320312 52.753906 275.8125 53.980469 C 274.21875 53.613281 275.566406 52.265625 273.726562 52.019531 C 274.097656 52.878906 274.097656 52.878906 274.34375 53.980469 C 271.523438 52.878906 272.992188 53 273.359375 55.085938 C 272.871094 54.71875 272.871094 54.472656 271.890625 54.472656 C 271.644531 56.066406 271.890625 56.554688 272.011719 57.535156 C 272.136719 58.394531 271.398438 57.902344 272.011719 59.5 C 272.625 61.460938 271.398438 59.867188 272.136719 62.441406 L 272.625 65.507812 C 272.625 65.628906 272.503906 65.875 272.503906 65.996094 L 271.15625 69.429688 C 271.15625 69.429688 270.785156 69.796875 270.664062 69.796875 C 270.050781 70.164062 269.804688 69.796875 269.683594 69.796875 C 270.050781 70.78125 269.683594 69.921875 270.417969 70.78125 C 268.457031 70.902344 269.070312 71.882812 268.945312 72.375 C 268.945312 72.375 267.964844 73.109375 269.191406 74.949219 C 269.679688 75.683594 269.558594 75.683594 270.417969 75.5625 C 269.679688 76.664062 269.800781 75.070312 269.925781 76.910156 C 270.539062 76.910156 270.292969 77.035156 270.785156 76.789062 L 271.640625 76.296875 C 270.90625 77.644531 270.539062 78.011719 270.539062 79.117188 C 271.761719 78.992188 270.90625 79.117188 271.761719 78.871094 C 271.640625 80.46875 271.148438 80.34375 272.621094 81.691406 C 275.808594 84.390625 276.542969 81.324219 277.402344 79.484375 L 282.675781 87.824219 C 281.816406 89.171875 282.433594 88.4375 281.816406 88.558594 C 281.449219 88.558594 282.183594 88.191406 280.960938 88.804688 C 281.082031 89.785156 281.574219 90.273438 282.308594 91.007812 C 281.695312 91.375 281.941406 90.640625 281.695312 91.375 C 282.429688 92.113281 281.9375 92.113281 283.167969 91.621094 L 283.167969 88.925781 C 284.390625 90.640625 283.167969 90.519531 285.375 90.394531 L 285.375 88.925781 C 285.863281 88.925781 287.824219 89.78125 286.84375 86.59375 C 286.601562 85.492188 285.988281 84.140625 285.496094 83.160156 C 286.109375 82.546875 286.476562 82.546875 286.722656 81.566406 C 287.457031 78.253906 283.902344 80.09375 282.0625 73.230469 C 281.328125 70.53125 284.144531 71.144531 283.167969 68.816406 C 282.675781 67.589844 283.167969 68.816406 282.554688 67.835938 C 282.0625 66.976562 281.816406 66.363281 281.9375 65.503906 C 283.164062 65.261719 284.023438 65.871094 284.636719 66.609375 C 285.742188 68.082031 285.371094 70.042969 284.882812 71.144531 C 284.390625 72.617188 285.863281 74.332031 287.332031 76.785156 C 287.578125 77.277344 289.171875 80.585938 291.378906 80.21875 L 294.445312 79.359375 C 294.8125 80.097656 294.933594 80.464844 296.039062 80.710938 L 295.671875 81.324219 L 295.304688 82.179688 C 293.21875 82.058594 294.8125 80.957031 292.730469 81.8125 C 291.503906 82.304688 292.972656 81.9375 291.625 82.425781 C 290.765625 82.671875 291.871094 81.8125 290.644531 82.550781 C 291.257812 83.898438 291.136719 83.042969 291.871094 83.410156 C 292.359375 83.652344 294.691406 85.738281 294.566406 87.699219 C 292.972656 87.578125 293.585938 86.351562 292.238281 85.863281 C 290.644531 88.191406 292.851562 90.152344 293.707031 92.484375 C 292.726562 93.097656 293.09375 92.359375 292.484375 92.851562 C 291.625 93.585938 293.585938 92.972656 291.871094 93.832031 C 290.519531 92.972656 291.871094 93.339844 290.644531 92.484375 C 289.296875 92.484375 287.824219 93.339844 286.964844 94.320312 C 285.984375 93.832031 285.371094 93.097656 284.269531 92.605469 L 282.429688 93.464844 C 281.570312 91.625 279.855469 91.625 279.609375 89.785156 C 280.222656 90.277344 280.34375 90.519531 281.082031 90.890625 C 281.203125 89.050781 280.835938 89.910156 279.734375 88.804688 C 280.101562 87.703125 279.734375 88.316406 280.589844 87.582031 L 279.855469 86.601562 C 279.488281 85.863281 279.855469 86.722656 279.613281 85.742188 C 279.367188 84.882812 279.367188 84.636719 278.996094 83.78125 C 277.402344 84.515625 278.875 84.761719 276.792969 85.128906 L 276.792969 85.984375 C 277.28125 85.863281 277.28125 85.617188 277.894531 85.863281 L 276.792969 86.597656 C 276.914062 88.191406 277.648438 89.050781 278.386719 90.519531 L 278.875 91.746094 C 279.121094 92.480469 279.367188 92.726562 279.121094 93.460938 C 278.753906 93.585938 278.753906 93.339844 278.015625 93.339844 L 277.28125 93.460938 C 272.621094 94.566406 275.441406 95.546875 273.359375 97.753906 C 272.625 98.488281 272.011719 98.734375 270.664062 98.859375 L 270.539062 100.820312 C 268.824219 101.554688 268.578125 102.292969 268.085938 102.414062 C 265.757812 101.925781 268.085938 101.3125 265.390625 101.3125 C 265.878906 102.167969 266.246094 102.535156 266.371094 103.761719 C 264.164062 103.519531 264.898438 103.394531 263.917969 103.027344 C 263.183594 102.785156 261.957031 103.027344 260.851562 103.152344 C 261.835938 105.972656 261.589844 105.113281 264.285156 106.09375 C 266.859375 107.074219 264.53125 108.179688 267.472656 109.40625 C 268.089844 111.859375 267.71875 113.695312 267.597656 116.394531 C 264.410156 116.515625 261.097656 115.167969 259.015625 114.921875 C 256.5625 114.679688 257.789062 113.574219 255.828125 114.308594 L 253.746094 115.042969 C 253.746094 115.289062 255.339844 117.617188 254.601562 121.542969 C 254.480469 122.523438 254.480469 123.136719 253.867188 123.382812 C 252.761719 125.957031 253.992188 125.710938 254.359375 126.9375 C 254.480469 127.792969 254.113281 128.898438 253.992188 129.511719 C 254.234375 129.511719 255.585938 129.878906 255.707031 129.878906 C 257.054688 130.121094 256.933594 129.753906 257.667969 130 C 259.019531 130.367188 258.648438 131.71875 259.632812 132.699219 C 260.488281 133.1875 260.734375 132.574219 262.207031 131.964844 C 264.902344 130.980469 265.269531 133.3125 267.230469 131.351562 C 268.335938 130.367188 267.722656 130.980469 268.457031 130.492188 C 268.949219 130.125 269.070312 129.757812 269.5625 129.265625 C 269.929688 128.777344 270.175781 128.652344 270.664062 128.160156 C 270.050781 127.179688 269.441406 126.445312 270.296875 125.34375 L 272.015625 122.769531 C 273.609375 122.523438 273.484375 123.011719 274.710938 121.910156 C 276.671875 120.070312 273.605469 118.84375 275.816406 117.988281 C 277.53125 117.253906 279.003906 119.210938 279.984375 119.089844 L 282.679688 117.375 C 283.417969 116.640625 282.066406 117.375 283.417969 116.394531 C 285.5 117.128906 285.867188 119.089844 286.605469 120.5625 C 287.339844 122.277344 287.21875 121.542969 288.320312 122.644531 C 289.054688 123.503906 288.933594 124.242188 289.914062 124.851562 C 291.019531 125.589844 290.28125 124.609375 291.875 126.324219 L 293.59375 128.40625 C 296.167969 131.71875 293.835938 131.964844 294.695312 133.433594 C 295.433594 132.945312 295.308594 132.699219 295.679688 131.964844 C 295.679688 131.964844 295.679688 131.839844 295.679688 131.71875 L 296.292969 130.613281 C 295.554688 129.390625 295.308594 129.757812 295.679688 127.917969 C 297.148438 128.40625 296.292969 129.023438 297.761719 129.511719 C 298.253906 128.285156 297.027344 127.304688 296.414062 126.691406 C 295.1875 125.589844 294.082031 125.710938 294.574219 124.238281 C 291.386719 123.625 291.507812 121.175781 290.894531 120.070312 C 289.425781 117.617188 288.933594 118.964844 288.441406 116.636719 L 288.199219 114.796875 C 289.546875 114.308594 288.199219 114.554688 289.671875 114.429688 L 290.40625 116.515625 C 291.261719 116.144531 290.28125 116.515625 291.261719 115.289062 L 292.488281 118.476562 C 293.222656 119.824219 293.960938 120.070312 294.941406 121.050781 C 295.433594 121.539062 295.1875 121.292969 295.675781 121.90625 C 296.65625 123.132812 298.375 123.257812 298.621094 125.34375 C 298.863281 126.691406 298.375 127.058594 298.742188 128.40625 C 298.988281 129.140625 299.601562 129.511719 299.96875 130.246094 C 300.582031 131.71875 300.210938 132.820312 302.050781 133.679688 C 301.4375 134.539062 301.195312 134.660156 301.929688 136.621094 C 302.542969 137.726562 303.398438 138.09375 304.136719 138.339844 C 304.257812 137.726562 304.136719 135.640625 303.519531 134.90625 L 303.398438 134.78125 C 303.273438 134.660156 303.273438 134.660156 303.152344 134.660156 C 303.152344 134.535156 303.03125 134.535156 303.03125 134.414062 C 302.664062 134.046875 302.785156 134.414062 302.664062 133.921875 C 303.519531 134.046875 304.136719 134.660156 304.625 135.640625 C 306.21875 133.921875 304.382812 132.941406 304.011719 132.574219 C 302.785156 131.226562 304.257812 132.941406 303.519531 131.226562 C 303.03125 130 302.664062 130.613281 302.785156 129.265625 C 303.765625 129.878906 303.03125 129.878906 304.257812 130.246094 C 305.363281 128.773438 303.152344 129.265625 304.871094 128.285156 C 305.730469 127.792969 305.976562 128.652344 307.203125 129.265625 C 307.9375 128.898438 309.039062 127.546875 309.652344 128.898438 C 310.144531 130.367188 308.058594 129.753906 306.710938 129.632812 L 307.324219 132.085938 C 307.9375 133.433594 307.9375 133.679688 307.203125 134.660156 C 307.9375 135.515625 307.9375 134.902344 308.304688 136.007812 C 308.304688 136.25 308.671875 138.089844 308.671875 138.460938 C 311.617188 139.683594 308.917969 139.441406 311.246094 140.300781 C 311.613281 139.683594 311.246094 139.5625 311.859375 138.703125 C 312.351562 138.949219 312.226562 138.828125 312.472656 138.949219 L 313.578125 140.910156 C 313.578125 140.789062 313.703125 140.910156 313.703125 141.035156 C 315.664062 139.808594 312.964844 139.316406 316.152344 139.683594 C 315.539062 142.257812 316.03125 144.097656 315.664062 146.917969 C 315.417969 148.023438 315.296875 149.125 315.171875 150.105469 C 314.804688 151.824219 314.804688 151.824219 313.703125 152.3125 C 311.738281 151.699219 313.703125 152.191406 312.84375 151.453125 C 312.71875 151.332031 312.71875 150.964844 311.984375 151.085938 C 310.882812 151.453125 311.617188 151.824219 310.269531 152.558594 C 308.675781 151.578125 309.535156 151.332031 307.941406 150.597656 C 306.957031 149.984375 307.816406 151.085938 305.855469 149.371094 C 304.875 148.511719 305 149.125 304.140625 148.023438 C 303.40625 146.917969 304.753906 148.023438 303.527344 147.042969 C 303.160156 146.796875 302.914062 146.675781 302.421875 146.675781 C 301.441406 146.550781 300.707031 147.042969 300.214844 147.53125 C 299.234375 149.984375 301.074219 149.863281 298.992188 151.824219 C 297.273438 151.457031 298.132812 150.476562 295.804688 149.617188 C 293.597656 148.636719 294.085938 148.636719 293.964844 146.429688 C 292.859375 145.9375 293.597656 146.183594 292.859375 145.816406 C 290.039062 144.222656 291.265625 145.449219 289.917969 144.835938 C 289.304688 144.46875 288.933594 143.730469 287.34375 142.628906 C 285.136719 141.035156 287.097656 140.914062 287.832031 139.316406 C 288.324219 137.96875 287.710938 137.96875 286.976562 136.863281 L 287.957031 135.027344 C 286.851562 134.414062 287.832031 135.394531 286.976562 134.78125 C 286.484375 134.292969 286.976562 134.539062 286.238281 133.800781 C 284.402344 133.800781 285.136719 134.292969 283.789062 134.167969 C 282.929688 134.167969 282.804688 133.800781 281.214844 133.800781 C 280.109375 133.675781 279.375 134.046875 278.640625 133.800781 C 276.433594 133.308594 273.613281 132.820312 270.792969 133.921875 C 265.152344 136.375 267.726562 136.375 264.660156 135.394531 C 263.804688 135.152344 263.558594 135.152344 262.820312 135.027344 C 260.25 134.785156 261.472656 134.046875 260.25 133.066406 L 259.390625 134.046875 C 259.144531 134.414062 259.144531 134.660156 258.898438 135.152344 C 258.398438 136.011719 258.03125 136.378906 257.417969 137.234375 Z M 229.339844 36.945312 L 227.746094 35.59375 C 227.746094 35.71875 226.152344 36.945312 229.339844 36.945312 Z M 253.738281 79.367188 L 254.230469 80.222656 C 255.210938 79.734375 254.597656 80.222656 255.335938 79.488281 L 255.335938 78.386719 Z M 287.949219 86.109375 C 288.316406 87.335938 288.316406 86.96875 289.171875 87.214844 L 288.683594 84.761719 C 287.949219 85.007812 287.703125 84.882812 287.949219 86.109375 Z M 225.664062 42.09375 C 225.664062 41.359375 226.644531 40.132812 222.84375 40.011719 C 223.210938 41.234375 224.3125 41.726562 225.664062 42.09375 Z M 127.578125 154.402344 C 128.3125 155.257812 129.417969 155.257812 130.523438 154.890625 C 131.257812 154.648438 130.890625 154.648438 131.136719 154.402344 C 130.277344 153.542969 129.050781 153.421875 128.4375 153.667969 C 126.722656 154.277344 128.191406 153.789062 127.578125 154.402344 Z M 283.53125 120.808594 C 283.65625 122.277344 283.53125 123.261719 284.636719 123.871094 C 285.128906 123.382812 285.128906 123.382812 285.128906 122.15625 L 285.003906 120.683594 C 284.757812 120.195312 284.757812 120.316406 284.636719 120.070312 C 284.023438 120.808594 284.636719 120.4375 283.53125 120.808594 Z M 107.105469 152.191406 C 108.210938 152.316406 109.3125 152.5625 110.046875 152.191406 L 108.453125 150.722656 C 107.71875 150.355469 106.613281 150.476562 105.632812 150.355469 C 106.246094 151.703125 105.511719 150.355469 106.367188 151.210938 C 106.613281 151.457031 106.859375 151.824219 107.105469 152.191406 Z M 152.46875 86.230469 L 153.941406 85.617188 C 153.207031 84.269531 150.753906 83.410156 149.28125 83.289062 C 150.015625 84.394531 149.28125 83.042969 150.261719 84.148438 Z M 186.921875 41.601562 C 185.324219 40.988281 185.816406 40.007812 183.367188 40.253906 C 182.507812 42.828125 184.222656 42.953125 186.800781 42.460938 L 186.921875 41.601562 L 189.128906 41.601562 C 189.003906 41.847656 188.511719 42.828125 188.390625 42.953125 L 187.535156 43.808594 C 187.042969 44.300781 186.675781 45.28125 186.921875 46.140625 C 186.1875 45.648438 186.1875 45.773438 185.449219 45.40625 C 186.675781 44.421875 186.0625 45.527344 186.554688 44.300781 L 184.589844 44.300781 C 184.347656 45.160156 185.082031 44.421875 182.136719 46.507812 C 182.382812 48.101562 181.769531 47.121094 182.75 47.855469 C 182.261719 48.222656 181.769531 48.101562 181.527344 48.960938 C 182.261719 50.429688 182.628906 51.535156 182.507812 53.742188 C 182.996094 53.496094 183.855469 52.882812 185.082031 53.496094 C 183.242188 54.480469 183.242188 53.375 182.75 55.703125 C 183.976562 57.054688 183.609375 55.582031 183.976562 57.175781 L 184.710938 59.628906 C 184.710938 59.75 184.835938 59.75 184.835938 59.871094 L 185.203125 60.363281 C 186.0625 61.710938 186.0625 61.34375 186.183594 63.0625 C 187.53125 62.9375 186.917969 62.691406 188.023438 62.816406 C 189.003906 62.816406 188.636719 62.816406 190.105469 62.816406 C 190.597656 64.164062 191.210938 64.042969 191.457031 65.511719 C 193.539062 65.269531 192.3125 65.269531 194.644531 65.390625 C 195.011719 63.917969 195.132812 64.777344 196.238281 62.816406 C 196.851562 61.710938 196.851562 60.734375 196.480469 59.503906 L 198.445312 59.628906 L 199.058594 58.523438 C 199.300781 58.28125 199.792969 58.035156 200.28125 57.542969 C 200.039062 56.195312 200.40625 57.300781 199.425781 56.316406 C 200.652344 55.582031 200.527344 57.054688 200.28125 54.722656 C 203.226562 55.582031 200.28125 53.128906 204.328125 53.988281 C 204.941406 53.128906 204.328125 53.128906 205.554688 52.515625 L 204.695312 54.355469 C 208.128906 53.128906 209.96875 53.742188 211.4375 51.535156 C 212.296875 50.429688 211.4375 51.046875 212.664062 50.429688 C 215.117188 49.207031 212.789062 50.554688 213.644531 48.835938 C 214.871094 49.570312 214.378906 50.429688 216.710938 49.941406 C 221.246094 48.714844 220.878906 50.429688 223.453125 48.46875 C 224.3125 47.855469 225.292969 47.734375 226.515625 47.242188 L 223.328125 46.019531 C 221.367188 45.40625 220.507812 46.386719 219.285156 46.019531 C 220.140625 45.527344 221.492188 45.40625 222.347656 44.667969 C 221.734375 44.179688 221.734375 44.300781 220.632812 44.425781 L 219.160156 44.425781 C 219.039062 44.425781 218.917969 44.425781 218.917969 44.425781 L 219.898438 44.300781 C 220.511719 44.179688 220.878906 44.179688 221.371094 44.058594 C 221.371094 42.585938 220.753906 43.933594 221.246094 42.832031 L 222.472656 43.691406 C 223.453125 44.304688 223.085938 43.933594 223.820312 44.914062 C 224.800781 46.140625 226.027344 46.140625 227.5 46.265625 C 227.132812 45.285156 226.640625 43.8125 225.78125 43.078125 C 225.660156 42.953125 225.660156 42.953125 225.539062 42.832031 C 222.59375 40.257812 223.820312 43.566406 221.617188 39.03125 L 222.597656 38.539062 C 223.945312 39.277344 224.679688 40.503906 226.886719 39.398438 C 226.273438 37.804688 225.90625 39.03125 225.050781 37.683594 C 226.273438 38.171875 226.03125 38.171875 227.746094 37.925781 L 227.011719 37.070312 L 226.886719 36.945312 C 226.273438 36.332031 226.398438 36.332031 225.785156 35.839844 L 226.519531 35.839844 C 226.519531 35.71875 226.640625 35.71875 226.761719 35.71875 L 226.886719 35.71875 C 225.414062 32.164062 224.925781 34.492188 222.839844 32.285156 L 225.660156 32.40625 C 226.394531 32.285156 225.90625 32.53125 226.273438 32.285156 C 225.417969 30.570312 223.945312 31.671875 224.066406 30.691406 C 224.066406 30.566406 224.191406 30.324219 224.191406 30.199219 C 223.457031 29.957031 223.210938 29.957031 222.351562 30.445312 C 222.476562 29.464844 222.476562 29.09375 222.109375 28.480469 C 223.945312 27.5 221.984375 29.09375 223.578125 26.277344 C 223.457031 26.277344 222.476562 26.277344 222.476562 26.277344 L 223.699219 25.90625 C 223.332031 25.171875 224.066406 25.90625 223.332031 25.417969 C 223.332031 25.417969 223.210938 25.292969 223.089844 25.292969 L 224.558594 24.804688 C 224.558594 23.210938 223.089844 23.085938 221.617188 23.210938 C 218.304688 23.332031 219.902344 23.453125 218.429688 24.191406 L 218.675781 22.226562 C 216.710938 21.984375 217.570312 22.226562 216.222656 22.71875 L 216.097656 21.859375 C 214.871094 21.859375 212.421875 22.226562 211.683594 21.617188 C 212.910156 20.882812 216.222656 22.351562 217.9375 21.371094 C 215.855469 20.882812 216.222656 21.003906 214.625 20.144531 C 213.03125 19.289062 209.84375 18.675781 207.882812 19.164062 C 207.148438 19.289062 205.675781 18.921875 202.734375 19.164062 C 203.101562 19.53125 203.347656 19.65625 203.59375 20.269531 C 202.488281 19.65625 202.242188 19.164062 200.648438 19.042969 L 200.28125 20.023438 C 198.074219 17.941406 195.988281 19.289062 192.800781 18.800781 L 194.273438 18.308594 C 193.167969 16.835938 193.414062 17.082031 188.757812 16.59375 C 187.898438 16.46875 188.019531 16.46875 187.285156 16.46875 C 186.671875 16.46875 187.160156 16.46875 186.671875 16.46875 C 184.464844 16.101562 176.003906 15.734375 174.164062 17.328125 C 173.183594 18.308594 174.65625 18.1875 172.082031 19.167969 C 172.449219 18.308594 172.570312 18.433594 173.1875 17.574219 C 173.308594 17.574219 173.554688 17.328125 173.675781 17.082031 C 172.449219 16.347656 169.628906 17.203125 168.28125 17.695312 L 163.746094 20.148438 L 163.621094 20.636719 C 164.359375 20.761719 165.21875 20.882812 165.585938 20.882812 C 166.933594 20.636719 164.851562 20.148438 171.46875 20.023438 C 170.855469 21.621094 171.101562 20.390625 168.894531 20.515625 C 166.441406 20.636719 167.179688 20.882812 166.074219 22.109375 C 165.953125 22.109375 165.953125 21.988281 165.953125 21.988281 C 165.460938 22.96875 165.585938 21.863281 165.585938 21.742188 C 165.09375 21.621094 166.320312 21.375 164.726562 21.621094 C 163.621094 21.742188 164.238281 21.742188 163.992188 21.863281 L 163.5 22.355469 C 162.277344 23.089844 161.171875 22.597656 159.824219 22.597656 C 160.066406 23.457031 159.945312 22.722656 160.558594 23.949219 C 161.664062 23.578125 161.171875 23.949219 162.886719 23.949219 C 163.746094 24.070312 164.484375 24.070312 165.585938 23.949219 L 165.585938 25.050781 C 166.566406 24.929688 169.261719 24.929688 169.628906 24.070312 L 169.753906 23.703125 C 169.875 23.703125 169.875 23.578125 169.875 23.578125 C 169.875 23.457031 169.875 23.335938 170 23.335938 C 170.492188 23.210938 170.734375 23.335938 170.980469 23.210938 L 171.714844 22.96875 C 174.167969 22.109375 172.449219 22.84375 174.046875 22.722656 C 175.269531 22.601562 173.921875 22.847656 174.902344 22.480469 C 177.96875 21.5 176.742188 22.480469 176.867188 20.394531 C 179.316406 22.113281 186.675781 18.800781 192.804688 18.800781 C 192.3125 20.640625 191.699219 19.414062 189.492188 19.535156 C 188.390625 19.660156 186.796875 20.027344 185.9375 20.269531 C 185.570312 21.128906 185.9375 20.394531 186.429688 21.742188 L 177.109375 22.601562 C 178.089844 25.542969 179.195312 23.828125 181.15625 24.441406 C 179.808594 25.296875 176.25 24.441406 175.882812 24.441406 C 176.128906 25.421875 175.757812 24.5625 176.375 25.175781 C 176.375 25.296875 176.742188 25.417969 177.109375 25.789062 C 175.757812 26.523438 176.25 25.421875 176.25 26.890625 L 181.644531 27.136719 C 183.484375 27.136719 185.566406 28.730469 185.691406 29.464844 C 185.8125 29.589844 185.8125 29.589844 185.8125 29.710938 L 186.179688 31.304688 C 186.546875 37.066406 184.832031 35.71875 183.726562 37.191406 C 185.566406 38.539062 185.691406 37.925781 187.160156 37.3125 C 187.527344 37.558594 187.40625 36.699219 187.527344 38.171875 C 187.898438 39.886719 188.632812 39.152344 188.878906 40.253906 C 187.039062 40.621094 188.386719 40.378906 187.773438 40.011719 C 187.527344 39.886719 186.792969 38.90625 184.585938 39.398438 C 185.203125 41.113281 186.183594 39.765625 186.921875 41.601562 Z M 293.957031 136.5 C 293.832031 134.90625 293.464844 134.292969 294.078125 132.945312 C 292.972656 132.703125 292.730469 132.945312 291.871094 132.824219 C 291.136719 132.699219 291.75 132.578125 290.644531 132.332031 C 290.15625 132.578125 290.03125 132.699219 289.789062 133.191406 C 290.277344 134.046875 292.359375 136.011719 293.957031 136.5 Z M 283.164062 125.097656 L 283.777344 129.878906 C 284.882812 129.878906 284.636719 129.636719 285.863281 129.265625 C 285.863281 125.957031 286.351562 125.710938 285.003906 124.117188 Z M 122.429688 150.109375 C 120.835938 149.863281 121.449219 149.496094 118.996094 149.375 C 117.402344 149.25 117.648438 148.882812 115.808594 148.761719 C 117.15625 150.96875 116.175781 148.636719 117.15625 151.824219 C 115.441406 151.824219 114.214844 150.84375 113.109375 151.335938 C 113.355469 151.824219 113.726562 152.191406 114.09375 152.683594 C 115.316406 152.4375 115.316406 152.191406 116.914062 152.4375 C 119.242188 152.808594 117.769531 153.054688 119.117188 153.910156 C 120.835938 153.542969 119.484375 153.542969 120.46875 153.296875 C 122.429688 152.683594 124.390625 153.542969 125.492188 152.808594 C 125.003906 151.703125 124.757812 152.191406 123.777344 151.457031 Z M 154.429688 24.441406 L 154.0625 24.929688 C 153.082031 26.15625 153.328125 25.421875 153.207031 26.277344 L 162.03125 27.628906 L 164.605469 26.402344 C 163.75 23.949219 161.542969 26.15625 157.863281 24.5625 C 157.863281 24.5625 157.742188 24.441406 157.621094 24.441406 C 158.109375 23.582031 157.621094 24.316406 158.355469 23.828125 L 159.214844 22.84375 L 158.476562 22.476562 C 156.882812 21.496094 158.234375 21.742188 156.882812 21.742188 C 156.515625 21.867188 155.777344 21.742188 155.535156 22.355469 C 155.167969 23.335938 155.777344 22.480469 156.269531 23.828125 C 155.410156 24.195312 154.917969 24.441406 154.429688 24.441406 Z M 243.074219 30.324219 L 244.546875 31.058594 C 245.894531 32.039062 246.628906 33.757812 249.082031 32.898438 C 249.816406 34.371094 247.855469 33.390625 249.695312 34.371094 C 251.042969 34.984375 250.308594 34.492188 251.167969 35.472656 L 254.84375 37.679688 C 254.109375 35.472656 253.863281 36.210938 253.007812 35.105469 C 252.761719 34.863281 252.515625 34.371094 252.269531 33.882812 C 256.5625 35.84375 253.128906 35.71875 256.441406 36.457031 C 256.683594 34.859375 254.96875 34.738281 253.496094 34.003906 C 252.394531 33.511719 253.007812 34.246094 252.640625 33.023438 C 251.65625 33.390625 252.394531 33.265625 252.148438 33.390625 L 251.65625 33.757812 L 251.535156 33.757812 C 251.042969 32.898438 252.148438 32.53125 248.835938 31.550781 C 249.328125 31.183594 247.488281 31.058594 249.820312 31.425781 C 250.921875 31.550781 249.574219 31.792969 251.167969 31.917969 L 251.167969 31.792969 C 249.453125 30.9375 247.734375 29.957031 245.894531 29.097656 C 245.648438 29.339844 245.527344 29.589844 245.28125 30.078125 Z M 113.480469 146.921875 C 113.234375 146.308594 112.621094 146.308594 110.660156 144.960938 C 108.332031 143.242188 109.1875 143.363281 107.839844 142.875 C 106.125 141.160156 106.980469 142.140625 105.757812 141.40625 C 104.285156 140.421875 106.371094 140.914062 103.917969 139.933594 C 101.34375 138.828125 96.5625 137.726562 96.070312 141.40625 C 98.152344 141.773438 99.011719 139.320312 100.972656 140.300781 C 101.339844 141.773438 100.730469 138.828125 100.851562 140.914062 C 100.851562 141.648438 101.585938 141.773438 102.445312 142.140625 C 102.570312 142.140625 102.691406 142.261719 102.691406 142.261719 L 103.914062 142.875 C 105.019531 143.367188 105.019531 143.121094 106.246094 143.242188 C 106.613281 145.816406 106.980469 145.082031 108.699219 145.941406 C 108.085938 147.535156 108.085938 146.0625 107.472656 147.535156 C 108.699219 147.902344 109.925781 147.78125 111.027344 148.148438 C 111.519531 148.273438 111.761719 148.882812 113.847656 148.027344 L 114.339844 147.902344 C 113.972656 146.921875 114.339844 147.414062 113.480469 146.921875 Z M 258.15625 91.75 L 257.417969 90.644531 C 257.296875 90.523438 257.050781 89.910156 256.929688 89.789062 C 257.664062 89.417969 258.15625 89.542969 258.15625 88.5625 C 258.15625 86.109375 253.863281 86.109375 253.742188 86.109375 L 253.007812 86.230469 C 252.882812 88.4375 253.742188 86.597656 253.128906 87.828125 C 252.640625 88.5625 252.023438 87.949219 251.535156 87.828125 C 249.574219 87.460938 251.535156 87.214844 250.800781 90.15625 L 252.394531 90.769531 C 249.941406 94.324219 250.921875 95.429688 255.214844 94.324219 C 258.644531 93.464844 256.925781 94.9375 258.15625 91.75 Z M 164.976562 81.941406 C 163.992188 83.164062 161.785156 84.882812 161.050781 85.863281 C 159.828125 87.457031 161.175781 86.351562 159.335938 87.457031 C 158.476562 87.949219 157.621094 88.683594 157.375 89.789062 C 159.335938 91.136719 163.257812 90.15625 164.484375 91.136719 C 164.976562 91.503906 164.609375 91.378906 164.976562 91.75 L 163.261719 92.484375 C 164.609375 93.957031 165.34375 91.625 167.550781 91.257812 C 167.550781 91.992188 167.183594 92.238281 166.9375 93.222656 C 167.429688 93.464844 166.695312 93.222656 167.429688 93.222656 C 168.777344 93.34375 167.0625 93.710938 169.023438 94.078125 L 170.371094 91.625 C 169.636719 91.382812 170.25 91.257812 169.515625 91.75 C 169.757812 91.015625 169.757812 91.503906 170.003906 90.402344 L 168.289062 91.503906 C 169.394531 89.175781 169.269531 90.648438 170.003906 89.421875 C 169.148438 89.054688 169.882812 89.664062 168.65625 89.054688 C 169.023438 88.441406 169.390625 88.5625 169.636719 88.195312 C 170.128906 87.460938 170.003906 87.582031 169.148438 87.214844 C 167.550781 86.480469 166.816406 86.96875 166.082031 87.707031 C 165.960938 87.460938 165.835938 86.96875 165.714844 86.847656 L 165.589844 86.480469 C 165.46875 86.113281 165.589844 85.746094 165.222656 85.375 C 164.367188 84.640625 165.101562 86.109375 163.875 85.375 C 164.488281 84.519531 164.980469 84.640625 167.0625 81.941406 L 164.976562 81.941406 L 166.570312 81.328125 C 168.410156 80.46875 166.570312 81.207031 167.792969 78.507812 C 168.164062 77.648438 167.917969 77.894531 168.039062 76.914062 C 165.585938 76.054688 166.691406 76.421875 165.464844 75.6875 C 164.851562 75.320312 165.34375 75.445312 164.605469 75.320312 C 163.136719 75.078125 162.15625 75.933594 160.804688 75.933594 C 164.484375 74.21875 164.726562 75.199219 165.710938 74.460938 C 165.097656 73.972656 164.359375 73.726562 163.625 73.238281 C 160.4375 71.273438 162.277344 73.480469 160.4375 70.785156 C 159.214844 69.191406 158.722656 69.558594 160.195312 68.085938 C 160.808594 67.351562 160.195312 68.210938 160.683594 67.597656 C 158.96875 64.53125 160.808594 68.945312 159.703125 64.164062 C 159.335938 62.816406 159.214844 60.609375 158.355469 59.503906 C 157.25 60.238281 156.640625 61.097656 155.289062 62.199219 C 153.941406 63.425781 155.046875 62.816406 153.695312 63.058594 C 153.207031 63.183594 152.222656 63.425781 151.488281 63.671875 C 150.261719 62.078125 151.367188 61.21875 148.546875 61.832031 C 148.789062 60.851562 148.667969 62.078125 149.648438 60.363281 L 150.875 58.15625 C 151.488281 57.175781 151.242188 58.03125 151.734375 56.929688 C 151.609375 56.808594 149.769531 56.195312 149.035156 55.949219 L 147.441406 52.636719 C 142.90625 53.496094 143.148438 50.921875 140.574219 52.269531 C 139.960938 53.863281 140.945312 53.128906 139.71875 54.476562 C 138.246094 55.949219 139.105469 54.601562 138.371094 56.683594 C 137.753906 58.644531 136.40625 58.644531 134.9375 59.75 C 135.179688 61.097656 136.160156 61.097656 135.917969 63.179688 C 135.550781 66.246094 131.503906 68.082031 128.070312 68.453125 C 127.945312 70.046875 127.457031 74.214844 125.988281 75.074219 L 123.414062 76.300781 C 122.675781 75.195312 121.574219 73.113281 122.308594 71.394531 L 124.761719 67.226562 C 123.289062 66.371094 123.042969 66.371094 120.960938 66.246094 C 119.363281 63.183594 120.59375 65.511719 119.121094 64.039062 C 118.140625 63.058594 118.875 62.324219 117.28125 61.585938 C 116.054688 60.363281 116.300781 60.605469 114.460938 60.972656 C 116.667969 56.070312 115.6875 57.664062 115.320312 56.683594 C 114.828125 55.578125 116.421875 54.109375 117.160156 53.496094 L 117.894531 53.003906 C 120.46875 51.289062 122.550781 49.203125 125.25 48.46875 C 126.230469 48.222656 125.738281 48.46875 126.722656 47.976562 C 126.84375 46.871094 126.722656 46.871094 126.109375 46.382812 C 126.964844 46.871094 126.722656 47.242188 127.824219 47.242188 C 129.296875 47.242188 128.4375 46.871094 130.277344 46.625 C 132.972656 46.382812 132.730469 45.644531 134.691406 44.789062 L 133.585938 43.929688 C 135.179688 43.929688 135.058594 44.421875 136.527344 43.5625 C 138.367188 42.335938 136.894531 42.214844 138.367188 41.96875 C 139.226562 42.949219 138.859375 42.949219 139.347656 44.050781 L 139.714844 43.804688 C 139.714844 43.683594 139.714844 43.804688 140.082031 43.316406 L 140.328125 42.824219 C 140.453125 42.582031 140.328125 43.191406 140.574219 42.089844 C 141.675781 42.703125 140.816406 42.582031 142.042969 42.457031 C 142.535156 42.457031 145.109375 41.601562 145.722656 40.617188 C 145.84375 39.882812 145.964844 39.882812 146.214844 39.023438 L 148.417969 37.921875 C 149.03125 37.550781 148.296875 37.796875 149.03125 37.550781 C 148.910156 37.308594 148.789062 37.0625 148.664062 36.9375 C 148.050781 35.714844 148.421875 35.222656 145.230469 35.589844 C 144.25 37.183594 145.355469 36.816406 142.167969 38.164062 C 141.433594 38.410156 142.167969 38.164062 141.554688 38.289062 C 141.429688 38.289062 141.429688 38.289062 141.308594 38.289062 C 138.488281 38.777344 141.433594 39.269531 138.613281 39.882812 C 139.46875 37.308594 141.308594 39.148438 141.1875 35.960938 C 140.328125 36.328125 140.082031 36.941406 138.121094 37.429688 C 138.488281 36.695312 139.714844 35.960938 140.453125 35.226562 C 139.714844 34.367188 140.328125 35.101562 139.347656 34.734375 C 139.46875 34.734375 139.589844 34.609375 139.589844 34.609375 C 139.589844 34.609375 139.714844 34.488281 139.835938 34.488281 C 141.796875 33.628906 140.695312 33.875 141.796875 32.773438 C 143.269531 31.175781 142.65625 32.527344 143.515625 30.074219 C 145.476562 30.320312 144.617188 30.074219 145.964844 29.460938 C 146.949219 28.972656 146.457031 29.460938 147.683594 29.09375 C 148.417969 28.847656 151.117188 27.867188 151.726562 27.5 L 150.378906 26.394531 C 147.316406 26.394531 144.371094 29.339844 140.082031 31.421875 C 138.730469 32.035156 137.75 32.527344 136.523438 33.261719 C 136.28125 34.976562 137.628906 33.875 135.542969 36.324219 C 134.441406 37.550781 133.949219 36.9375 132.480469 37.796875 C 131.375 38.410156 131.746094 38.53125 130.640625 38.902344 C 130.761719 37.429688 131.007812 38.65625 132.480469 37.183594 L 131.5 36.328125 C 128.679688 36.941406 129.78125 38.902344 125.738281 36.449219 C 126.351562 34.367188 126.105469 36.328125 126.839844 34.734375 C 124.757812 35.226562 124.757812 34.488281 123.40625 35.960938 C 123.40625 36.082031 123.40625 36.082031 123.285156 36.203125 L 122.304688 37.0625 C 121.9375 37.550781 121.445312 37.796875 120.953125 38.167969 C 121.445312 37.429688 121.691406 37.183594 121.691406 36.082031 L 119.359375 36.328125 C 120.464844 34.363281 121.691406 36.203125 121.566406 33.628906 C 112.125 39.148438 103.296875 45.890625 95.453125 53.492188 C 95.328125 53.617188 95.207031 53.738281 95.085938 53.859375 L 94.960938 53.984375 C 94.714844 54.226562 94.46875 54.472656 94.101562 54.839844 C 93.859375 55.085938 93.613281 55.332031 93.367188 55.574219 C 82.457031 66.609375 73.503906 79.605469 67.007812 94.074219 C 66.148438 97.875 63.207031 105.109375 63.574219 106.824219 C 63.695312 107.929688 64.433594 108.539062 64.308594 110.503906 C 64.1875 112.339844 63.941406 113.078125 63.574219 114.546875 C 63.082031 117.121094 63.695312 120.1875 63.449219 121.660156 C 63.082031 123.621094 63.082031 121.660156 62.59375 123.132812 C 63.082031 123.988281 63.082031 124.601562 63.449219 125.585938 C 64.921875 129.261719 62.835938 125.953125 64.308594 131.226562 C 64.675781 132.207031 64.433594 133.675781 64.921875 134.289062 C 66.636719 132.816406 64.921875 131.960938 64.921875 129.753906 L 64.433594 118.964844 C 64.1875 117.367188 64.1875 115.039062 64.921875 113.8125 C 66.394531 114.792969 65.535156 116.878906 65.535156 120.066406 C 65.660156 122.519531 66.394531 124.601562 66.515625 126.316406 C 66.515625 128.28125 66.640625 129.628906 67.496094 131.589844 C 68.480469 133.550781 68.480469 135.269531 68.601562 137.597656 C 68.726562 139.683594 66.886719 141.03125 70.195312 145.199219 C 71.054688 146.425781 76.328125 151.699219 77.554688 152.066406 C 79.023438 152.554688 79.023438 151.699219 80.375 151.328125 C 81.476562 152.3125 81.476562 151.945312 82.335938 153.660156 C 84.664062 158.195312 83.316406 155.621094 87.117188 158.195312 C 88.222656 158.929688 88.832031 159.667969 90.304688 159.175781 C 90.0625 160.402344 89.9375 159.910156 90.796875 161.015625 C 93.003906 163.714844 92.511719 164.570312 92.757812 165.675781 C 93.25 167.882812 94.839844 166.410156 95.945312 168.984375 C 97.171875 171.929688 96.925781 169.476562 100.480469 172.664062 C 101.21875 173.398438 100.480469 173.15625 101.585938 173.398438 L 102.320312 173.03125 C 102.078125 172.050781 102.078125 172.910156 101.832031 171.558594 C 103.546875 170.578125 102.320312 170.578125 104.035156 170.089844 C 105.140625 171.191406 105.019531 170.578125 105.140625 171.804688 L 106 174.011719 C 107.59375 176.21875 106.488281 177.445312 106.980469 180.019531 C 107.226562 181.246094 107.59375 181 106.855469 182.226562 C 105.632812 183.941406 105.632812 182.714844 105.019531 183.820312 C 104.652344 184.554688 105.019531 184.925781 104.28125 185.660156 C 103.792969 186.273438 103.546875 185.902344 103.058594 186.882812 C 102.8125 187.5 103.179688 187.253906 102.691406 188.109375 C 102.324219 189.335938 101.464844 191.910156 102.8125 192.769531 L 103.917969 193.136719 C 103.917969 193.136719 104.039062 193.136719 104.160156 193.136719 C 103.792969 195.21875 103.058594 193.75 102.199219 195.464844 C 101.585938 196.449219 102.566406 197.183594 102.933594 198.039062 L 103.058594 198.652344 C 103.058594 199.144531 102.933594 198.777344 103.179688 199.269531 C 103.179688 199.269531 104.039062 200.125 104.160156 200.25 C 106.613281 202.085938 104.160156 200.371094 106.859375 203.804688 C 107.226562 204.171875 107.347656 204.539062 107.71875 205.152344 L 112.5 212.507812 C 114.09375 217.414062 116.667969 217.902344 121.082031 221.089844 C 123.289062 222.683594 121.9375 222.804688 124.269531 223.542969 C 124.636719 226.117188 125.984375 227.589844 125.984375 231.632812 C 126.109375 233.964844 126.84375 234.085938 126.964844 235.3125 C 127.210938 238.011719 127.457031 236.785156 127.457031 239.359375 C 127.332031 242.667969 128.929688 244.507812 129.785156 247.082031 C 131.746094 252.597656 129.296875 252.722656 131.378906 254.804688 C 132.238281 255.785156 132.484375 256.523438 132.851562 257.257812 C 138.125 255.785156 143.519531 254.4375 149.035156 253.335938 C 148.914062 253.089844 148.667969 252.96875 147.933594 252.355469 C 147.808594 252.355469 147.808594 252.230469 147.6875 252.109375 C 149.28125 252.234375 148.914062 252.476562 150.140625 252.96875 C 150.261719 252.96875 150.386719 252.96875 150.507812 252.96875 C 151.613281 252.722656 152.714844 252.476562 153.820312 252.355469 C 154.675781 251.496094 155.289062 250.515625 155.289062 249.042969 C 155.902344 249.65625 155.78125 249.65625 156.515625 249.167969 C 158.597656 247.941406 157.375 247.820312 158.355469 246.59375 C 159.089844 245.734375 159.703125 245.980469 160.070312 244.753906 C 160.683594 241.933594 158.722656 241.320312 161.785156 239.972656 L 163.503906 238.867188 C 168.40625 238.132812 164.976562 237.519531 167.792969 237.640625 C 168.898438 237.765625 171.351562 238.378906 172.578125 237.027344 C 173.558594 236.046875 172.085938 237.027344 173.925781 234.945312 L 175.765625 233.105469 C 175.765625 232.492188 175.640625 232.371094 175.886719 231.632812 L 176.132812 230.898438 C 176.253906 230.898438 176.253906 230.777344 176.253906 230.777344 C 178.339844 226.976562 177.359375 227.957031 177.851562 225.015625 C 177.972656 224.15625 178.339844 223.421875 178.585938 222.316406 L 178.953125 222.441406 C 180.425781 222.929688 180.914062 222.074219 181.648438 220.847656 C 182.382812 219.496094 181.648438 220.355469 183.121094 219.496094 C 183.855469 219.128906 184.46875 218.761719 185.082031 218.273438 C 187.902344 216.066406 188.148438 213.734375 187.65625 210.179688 C 183.855469 208.585938 188.023438 212.144531 182.015625 207.117188 L 181.160156 206.257812 C 179.933594 205.644531 180.667969 204.785156 178.707031 204.417969 C 177.480469 204.050781 176.375 204.296875 175.152344 203.929688 C 173.925781 203.4375 173.554688 202.824219 172.207031 202.824219 L 169.878906 203.191406 C 171.105469 200.738281 170.246094 200.863281 167.917969 199.882812 C 166.445312 199.265625 165.21875 198.285156 163.746094 198.164062 C 162.152344 199.390625 161.910156 200.984375 160.4375 199.511719 C 162.03125 199.265625 162.765625 198.777344 162.644531 197.0625 C 161.292969 196.816406 159.945312 196.570312 158.722656 196.324219 L 158.105469 198.042969 C 155.902344 197.796875 156.390625 199.144531 154.917969 198.410156 C 155.042969 198.410156 155.164062 198.410156 155.164062 198.410156 L 156.636719 197.183594 C 158.597656 194.488281 158.105469 197.0625 160.3125 193.503906 C 159.210938 191.421875 158.597656 193.996094 158.230469 188.96875 C 158.230469 188.113281 158.351562 188.480469 157.738281 187.867188 C 156.144531 186.148438 155.777344 185.660156 153.9375 184.800781 C 152.46875 184.1875 153.449219 183.820312 151.855469 183.453125 L 150.628906 183.207031 C 149.28125 183.085938 150.015625 182.71875 148.914062 182.839844 L 148.789062 182.839844 C 146.828125 183.085938 147.6875 182.472656 145.96875 182.839844 C 145.847656 181.367188 145.113281 180.632812 143.515625 180.511719 C 143.886719 178.179688 142.046875 177.9375 140.699219 176.21875 L 137.753906 176.21875 C 138.613281 175.484375 139.101562 175.359375 138.980469 174.011719 C 138.488281 173.769531 137.140625 173.15625 136.773438 173.03125 C 135.179688 172.417969 136.527344 172.785156 135.179688 172.050781 C 136.035156 171.804688 135.914062 172.050781 136.527344 171.558594 C 133.953125 169.84375 131.5 171.683594 130.640625 171.683594 C 127.699219 171.683594 131.378906 170.210938 124.511719 170.335938 L 123.652344 167.882812 L 121.570312 167.757812 C 121.324219 166.902344 121.570312 166.777344 120.835938 166.042969 L 120.46875 167.636719 L 118.136719 168.128906 C 117.894531 170.335938 118.996094 170.457031 118.382812 171.804688 C 117.523438 171.804688 117.523438 171.683594 116.789062 170.703125 C 117.523438 168.496094 117.890625 169.96875 117.402344 167.269531 L 117.769531 166.902344 C 117.890625 166.902344 118.011719 166.902344 118.011719 166.777344 C 119.117188 166.042969 118.746094 166.285156 118.871094 165.671875 C 117.644531 163.710938 116.664062 165.917969 115.4375 166.410156 C 114.332031 166.777344 114.210938 166.285156 112.984375 166.898438 C 112.984375 166.898438 112.863281 166.898438 112.742188 166.898438 C 111.515625 167.632812 112.003906 166.53125 111.023438 167.023438 C 109.796875 168.738281 110.78125 168.984375 109.675781 170.085938 C 109.308594 170.453125 108.203125 171.191406 107.46875 171.800781 C 105.996094 170.699219 105.996094 169.839844 104.648438 169.597656 L 103.421875 168.738281 C 98.273438 170.332031 99.011719 169.71875 98.027344 167.878906 C 97.660156 167.265625 96.925781 167.023438 96.558594 166.285156 C 95.699219 164.8125 96.433594 162.605469 96.558594 161.015625 C 96.800781 157.089844 96.925781 160.890625 97.292969 156.230469 C 95.945312 155.617188 96.3125 155.988281 95.699219 154.269531 L 90.058594 153.65625 C 88.710938 153.53125 89.324219 154.148438 88.710938 153.042969 C 88.339844 152.183594 88.832031 152.917969 89.078125 152.308594 C 89.445312 151.449219 89.933594 148.628906 89.566406 147.523438 C 90.546875 147.035156 88.339844 147.769531 90.179688 147.769531 C 91.039062 147.648438 90.792969 146.542969 91.039062 145.195312 C 91.652344 142.5 92.753906 144.214844 92.386719 141.273438 C 91.28125 140.660156 88.710938 141.148438 86.992188 141.394531 C 86.257812 147.402344 85.277344 144.460938 84.910156 146.914062 C 84.785156 146.914062 84.296875 146.667969 84.296875 146.667969 C 82.089844 146.425781 80.496094 148.386719 78.902344 144.339844 C 77.921875 141.886719 77.1875 138.945312 77.554688 136 C 77.675781 135.019531 78.042969 133.058594 78.289062 132.078125 C 78.410156 131.710938 78.53125 131.34375 78.65625 131.222656 C 79.023438 130.363281 78.65625 131.222656 79.023438 130.363281 C 79.390625 129.75 79.390625 129.015625 79.390625 128.15625 C 79.511719 126.929688 79.882812 125.582031 80.496094 124.480469 C 81.71875 122.515625 82.089844 125.09375 83.070312 122.640625 C 83.683594 122.394531 83.191406 122.882812 84.050781 121.660156 C 85.152344 121.660156 84.90625 121.414062 85.890625 121.660156 C 86.625 121.78125 86.378906 121.902344 87.238281 122.148438 C 88.585938 122.394531 88.585938 121.660156 88.953125 123.496094 C 90.300781 123.496094 90.058594 123.128906 90.792969 123.375 C 92.140625 123.742188 90.058594 124.480469 91.898438 123.863281 L 91.898438 123.128906 L 91.28125 121.289062 L 94.347656 121.167969 C 97.535156 121.289062 96.921875 121.042969 98.148438 123.738281 C 99.988281 123.738281 98.882812 123.371094 100.230469 122.882812 C 100.847656 123.738281 100.476562 123.617188 100.96875 124.355469 C 101.582031 125.578125 101.335938 124.722656 102.070312 125.703125 L 101.214844 128.15625 L 101.214844 128.277344 C 101.214844 128.402344 101.214844 128.402344 101.214844 128.523438 L 101.335938 128.890625 C 101.335938 129.257812 101.335938 129.503906 101.460938 130.117188 C 103.296875 138.207031 106.117188 134.160156 105.503906 129.871094 L 105.136719 126.558594 C 105.136719 125.945312 105.136719 126.316406 105.136719 125.578125 C 104.894531 123.496094 104.648438 121.777344 105.75 120.183594 L 106.976562 118.960938 C 107.101562 118.835938 107.101562 118.835938 107.222656 118.835938 L 108.203125 118.101562 C 110.164062 117.367188 113.351562 114.179688 116.171875 113.933594 C 116.785156 112.953125 115.4375 113.566406 116.664062 113.074219 C 117.277344 112.707031 117.519531 113.074219 118.257812 112.21875 L 117.152344 111.480469 C 117.152344 111.480469 118.011719 111.359375 118.132812 110.378906 C 118.132812 109.398438 117.765625 109.398438 117.277344 108.78125 L 118.011719 107.1875 L 116.90625 105.839844 C 118.378906 106.699219 118.011719 104.613281 119.359375 104.125 C 118.746094 105.964844 118.5 105.472656 118.746094 106.578125 C 119.238281 108.78125 118.5 107.191406 118.253906 108.90625 C 118.5 108.78125 119.726562 107.558594 119.972656 107.191406 C 120.707031 106.332031 120.828125 105.351562 120.339844 104.125 C 121.320312 104.492188 120.582031 104.25 121.074219 104.617188 C 121.566406 104.984375 121.074219 104.859375 121.808594 105.105469 C 122.789062 104.371094 121.933594 104.984375 122.667969 104.25 L 123.402344 103.390625 C 124.628906 101.675781 123.523438 102.53125 123.769531 101.675781 C 124.75 101.917969 127.203125 101.796875 128.0625 101.308594 C 126.835938 100.570312 126.835938 101.429688 125.730469 100.816406 L 132.964844 100.570312 C 130.636719 99.46875 131.984375 98.976562 132.105469 96.527344 C 133.824219 96.28125 132.472656 96.28125 134.679688 95.667969 L 136.398438 95.054688 C 136.519531 94.933594 136.519531 94.933594 136.640625 94.933594 L 137.132812 94.808594 C 137.253906 94.808594 137.375 94.808594 137.375 94.808594 L 145.957031 93.214844 L 146.324219 94.070312 C 144.855469 93.703125 144.855469 93.703125 143.75 94.441406 C 142.769531 95.054688 142.28125 95.054688 141.546875 95.664062 L 142.035156 97.628906 C 143.996094 97.382812 143.996094 96.769531 144.980469 96.277344 C 146.082031 95.664062 150.621094 95.175781 151.84375 94.808594 C 151.96875 94.808594 152.089844 94.683594 152.089844 94.683594 C 153.195312 94.316406 154.417969 94.5625 155.03125 93.578125 L 154.664062 91.25 C 152.457031 91.375 151.355469 93.578125 151.230469 93.703125 L 149.023438 93.210938 C 148.167969 92.96875 147.800781 92.597656 147.1875 92.109375 C 145.347656 90.269531 146.695312 88.796875 146.816406 87.816406 C 145.101562 87.816406 145.347656 87.695312 143.996094 87.203125 C 144.367188 86.957031 143.996094 86.835938 144.855469 87.078125 C 145.101562 87.078125 145.46875 87.324219 145.835938 87.570312 C 145.960938 87.570312 146.082031 87.449219 146.082031 87.449219 C 146.449219 88.0625 145.714844 87.816406 147.429688 86.957031 C 148.164062 86.589844 148.289062 86.589844 148.777344 85.609375 C 146.816406 82.175781 140.441406 85.484375 138.234375 86.464844 C 137.5 86.710938 137.128906 86.832031 136.519531 87.199219 C 136.027344 87.445312 135.660156 87.816406 135.046875 88.058594 C 135.414062 86.953125 136.027344 87.199219 137.867188 86.097656 C 138.726562 85.605469 140.195312 84.75 141.054688 84.257812 C 143.015625 83.398438 140.6875 84.992188 144.488281 82.664062 C 146.082031 81.804688 152.089844 82.664062 152.949219 82.90625 C 154.664062 83.273438 156.503906 84.132812 158.222656 83.644531 L 160.675781 82.292969 C 161.65625 81.558594 161.289062 81.804688 162.757812 81.804688 C 163.746094 81.695312 163.992188 81.695312 164.976562 81.941406 Z M 227.378906 56.4375 C 226.644531 55.582031 227.378906 56.070312 226.15625 55.824219 C 225.421875 58.15625 226.03125 56.070312 224.929688 57.421875 C 227.503906 57.910156 227.382812 57.175781 228.484375 58.402344 L 228.609375 58.523438 C 228.976562 59.015625 228.609375 58.648438 228.851562 59.015625 C 227.746094 59.015625 227.136719 58.402344 225.910156 59.136719 C 227.132812 59.75 226.765625 58.769531 228.484375 59.996094 C 229.339844 60.730469 227.746094 59.996094 229.21875 60.609375 L 228.484375 61.222656 C 227.871094 61.714844 228.117188 60.855469 227.992188 61.714844 C 230.199219 62.203125 229.832031 61.589844 231.671875 62.695312 C 234.367188 64.65625 235.714844 63.308594 238.535156 62.328125 C 239.394531 62.082031 240.375 62.328125 241.234375 60.242188 C 239.027344 58.28125 240.128906 60.367188 238.660156 58.160156 C 237.679688 56.566406 238.292969 58.285156 236.453125 56.445312 C 235.226562 57.058594 236.820312 57.300781 234.613281 57.179688 C 232.40625 57.179688 233.019531 56.199219 231.792969 57.546875 L 230.9375 56.566406 C 230.320312 57.792969 231.550781 56.933594 230.566406 57.667969 C 228.730469 59.140625 230.691406 56.445312 227.132812 55.21875 C 226.890625 55.824219 227.132812 55.949219 227.378906 56.4375 Z M 256.925781 78.753906 C 255.945312 81.695312 255.703125 80.589844 255.089844 80.960938 C 255.945312 82.675781 256.191406 81.574219 256.804688 81.941406 C 256.558594 83.78125 255.824219 82.429688 256.4375 83.902344 C 256.925781 83.902344 257.050781 83.78125 257.539062 83.042969 C 257.539062 84.027344 256.925781 85.617188 257.417969 86.476562 C 258.152344 85.375 257.292969 85.375 258.523438 85.007812 C 259.136719 87.214844 258.523438 86.109375 258.644531 87.703125 C 258.890625 87.828125 259.871094 88.195312 259.992188 88.195312 C 260.851562 88.316406 259.871094 87.828125 260.976562 88.195312 L 260.976562 88.316406 L 261.21875 89.050781 C 261.710938 90.035156 261.953125 89.910156 262.199219 90.648438 C 262.324219 91.261719 262.199219 91.382812 262.199219 91.996094 C 260.359375 91.871094 261.097656 91.75 259.992188 91.382812 C 260.117188 93.097656 260.238281 92.605469 260.605469 93.222656 L 260.730469 93.34375 C 261.222656 94.570312 260.117188 94.449219 259.382812 95.058594 C 259.996094 96.410156 259.75 95.550781 261.222656 96.042969 C 262.203125 96.410156 262.324219 96.65625 263.550781 96.410156 C 262.203125 97.757812 262.9375 96.285156 261.222656 97.265625 C 260.238281 97.632812 259.503906 98.984375 259.625 99.597656 C 261.097656 99.964844 261.34375 98.125 262.445312 99.597656 C 262.691406 99.351562 262.9375 98.859375 263.058594 98.492188 C 265.144531 99.105469 265.023438 98.613281 266.738281 98.859375 C 268.332031 99.105469 269.433594 99.472656 270.539062 98.246094 L 270.171875 98 C 270.046875 98 270.046875 97.878906 269.925781 97.878906 L 268.824219 97.144531 C 270.171875 96.285156 270.171875 96.53125 270.292969 94.445312 C 269.070312 93.832031 269.070312 93.832031 267.476562 93.832031 C 267.71875 92.730469 267.351562 92.484375 266.738281 91.378906 C 265.757812 89.171875 265.636719 89.664062 265.144531 89.296875 C 263.0625 87.703125 264.777344 85.742188 261.097656 85.375 C 261.46875 84.882812 261.34375 85.128906 261.589844 84.515625 L 262.324219 81.453125 C 260.730469 80.960938 260.363281 80.960938 258.769531 81.328125 C 259.382812 78.875 259.628906 80.960938 259.875 79 C 259.378906 78.753906 257.539062 78.632812 256.925781 78.753906 Z M 158.71875 29.464844 C 158.476562 30.816406 158.351562 30.449219 159.210938 31.183594 C 158.597656 31.550781 158.597656 31.550781 158.105469 31.796875 L 156.757812 31.304688 C 156.882812 31.304688 157.371094 30.9375 157.371094 30.9375 C 157.738281 30.570312 157.617188 30.695312 157.863281 30.449219 C 158.71875 29.21875 157.496094 30.078125 158.71875 29.464844 Z M 154.429688 43.6875 C 153.449219 44.667969 152.589844 44.054688 151.976562 45.160156 L 151.609375 46.140625 C 151.609375 46.140625 151.609375 46.265625 151.488281 46.386719 C 150.875 46.261719 150.015625 46.261719 149.402344 46.261719 C 148.914062 46.140625 145.726562 44.792969 144.007812 47.242188 C 144.625 48.46875 145.726562 48.46875 146.953125 48.347656 C 148.300781 48.226562 147.6875 48.226562 148.667969 48.347656 C 149.160156 48.347656 149.894531 48.226562 150.507812 48.226562 C 150.632812 51.289062 150.875 50.554688 151.855469 50.675781 L 151 51.660156 L 151.734375 53.128906 L 151.734375 53.253906 C 152.835938 53.742188 152.101562 53.375 153.449219 53.128906 C 153.816406 54.726562 153.816406 54.234375 155.53125 54.847656 C 157.003906 55.214844 156.757812 55.703125 157.984375 55.949219 C 158.476562 53.128906 157.371094 53.867188 156.761719 51.90625 C 158.476562 52.519531 159.214844 53.742188 160.683594 54.480469 C 161.785156 53.375 161.171875 54.234375 161.539062 52.882812 C 162.765625 52.640625 160.683594 53.375 162.398438 53.007812 C 163.503906 52.761719 162.277344 53.007812 162.890625 50.308594 C 163.132812 48.714844 161.785156 50.675781 161.050781 48.472656 C 160.558594 47.121094 161.664062 44.425781 163.378906 46.265625 C 165.097656 47.980469 162.644531 46.878906 163.992188 48.839844 C 164.238281 49.207031 165.097656 49.574219 165.589844 49.695312 C 168.410156 46.875 166.9375 49.328125 168.410156 48.101562 L 169.023438 46.996094 C 169.757812 47.363281 170.246094 46.996094 171.105469 46.628906 C 170.613281 46.015625 170.492188 45.894531 169.878906 45.40625 L 169.265625 45.160156 C 167.425781 44.179688 168.777344 45.039062 168.164062 43.933594 L 167.671875 43.320312 C 166.8125 42.339844 167.425781 42.832031 165.464844 42.585938 C 164.605469 40.257812 164.238281 41.851562 164.238281 40.871094 C 164.972656 40.136719 165.34375 40.136719 166.9375 40.378906 C 166.8125 39.890625 166.570312 40.011719 166.691406 39.152344 C 166.816406 38.417969 167.183594 38.539062 167.183594 37.804688 L 166.078125 37.683594 C 166.8125 36.335938 166.445312 38.296875 166.570312 36.335938 C 165.710938 35.964844 165.097656 35.597656 163.75 35.597656 C 165.097656 34.984375 164.484375 35.964844 164.972656 34.742188 L 164.238281 34.128906 C 163.503906 33.761719 164.363281 34.128906 163.382812 33.882812 L 162.277344 34.863281 C 162.03125 32.902344 163.382812 32.535156 161.050781 31.429688 C 160.808594 31.308594 160.683594 31.308594 160.316406 31.0625 L 159.949219 30.820312 C 160.683594 30.820312 161.910156 31.0625 162.402344 30.695312 C 162.523438 29.222656 162.769531 29.714844 160.929688 29.347656 C 159.949219 29.222656 159.707031 28.980469 158.722656 29.46875 C 158.601562 28 157.5 28.488281 153.941406 29.59375 C 151.980469 30.207031 152.835938 30.328125 151.980469 31.066406 C 150.140625 32.289062 151.613281 30.820312 150.140625 32.660156 C 150.140625 30.453125 150.015625 31.554688 150.875 30.695312 C 153.449219 28.246094 154.554688 29.347656 155.777344 28.367188 C 152.835938 26.652344 147.933594 30.695312 145.601562 31.554688 C 145.96875 33.027344 146.460938 32.046875 146.707031 33.027344 C 146.09375 32.902344 146.09375 32.78125 145.726562 32.78125 C 144.992188 32.660156 146.09375 32.660156 144.992188 32.660156 C 144.992188 32.660156 144.867188 32.78125 144.746094 32.78125 C 144.746094 32.660156 144.625 32.78125 144.5 32.78125 C 144.257812 33.640625 144.011719 34.128906 146.097656 34.867188 L 151.125 36.214844 C 154.558594 37.074219 152.347656 36.703125 154.1875 35.722656 C 156.027344 40.261719 156.886719 40.261719 156.640625 42.835938 Z M 314.0625 116.148438 L 314.183594 118.722656 L 312.835938 118.722656 L 312.222656 116.515625 C 312.957031 115.78125 313.816406 114.921875 314.304688 114.554688 C 314.183594 115.410156 313.328125 116.390625 314.0625 116.148438 Z M 316.144531 123.257812 C 317.003906 124.605469 319.210938 128.777344 317.617188 129.144531 C 316.757812 129.386719 316.882812 129.511719 316.144531 129.144531 L 314.796875 128.160156 C 314.675781 127.546875 314.429688 126.566406 313.082031 126.566406 C 311.730469 126.691406 311.976562 127.425781 310.875 128.285156 C 308.914062 128.039062 308.789062 127.667969 308.300781 126.078125 C 307.566406 123.503906 307.933594 125.09375 308.175781 122.398438 C 308.300781 121.539062 308.054688 121.171875 308.054688 120.683594 C 308.054688 117.617188 308.296875 120.804688 308.667969 118.71875 C 308.789062 117.863281 308.667969 118.351562 308.542969 117.738281 C 308.421875 116.515625 308.542969 115.777344 309.28125 114.917969 C 310.875 116.023438 308.421875 116.515625 311.363281 116.390625 C 311.238281 116.515625 310.996094 117.496094 310.996094 117.617188 C 310.871094 118.472656 310.871094 117.984375 311.238281 118.71875 C 312.222656 120.316406 311.609375 119.578125 312.097656 121.050781 L 313.078125 119.945312 C 313.445312 119.578125 312.464844 120.070312 313.691406 119.578125 C 314.675781 120.070312 313.203125 119.085938 314.796875 120.925781 C 315.410156 121.664062 316.023438 121.789062 316.144531 123.257812 Z M 108.945312 96.652344 C 109.925781 96.164062 109.3125 96.285156 110.539062 96.410156 C 110.78125 95.425781 110.292969 96.164062 110.90625 95.304688 C 112.132812 96.410156 110.171875 95.671875 115.199219 95.179688 L 116.914062 95.304688 C 116.421875 95.917969 116.667969 96.039062 115.320312 96.285156 C 113.355469 96.898438 111.886719 97.632812 110.90625 97.632812 C 109.433594 97.757812 109.554688 97.757812 108.945312 96.652344 Z M 116.789062 93.832031 C 118.386719 91.992188 118.140625 93.957031 122.429688 93.097656 C 122.308594 93.832031 122.0625 94.445312 121.816406 94.9375 C 120.835938 94.691406 120.101562 94.8125 118.996094 94.324219 C 117.160156 93.589844 118.628906 94.324219 117.28125 94.078125 Z M 109.554688 79.609375 C 109.800781 79.976562 109.679688 79.855469 110.167969 80.222656 L 110.78125 80.589844 C 110.78125 80.46875 111.027344 80.589844 111.027344 80.714844 C 110.90625 81.695312 110.78125 81.449219 111.027344 82.0625 L 111.394531 82.675781 C 111.886719 83.65625 111.640625 84.273438 111.519531 85.375 C 110.90625 85.375 108.820312 85.007812 108.085938 85.128906 C 107.59375 84.886719 106.980469 84.515625 106.734375 83.902344 C 106.734375 83.414062 106.734375 83.78125 106.980469 83.289062 L 107.472656 82.800781 C 104.773438 82.921875 105.753906 84.273438 102.566406 83.78125 C 100.726562 83.535156 101.710938 84.027344 100.851562 83.414062 C 102.566406 82.800781 103.792969 82.554688 105.386719 81.699219 C 107.347656 80.835938 104.773438 81.207031 109.554688 79.609375 Z M 106.980469 86.96875 C 108.578125 86.722656 109.679688 86.109375 111.273438 86.84375 C 112.746094 86.109375 109.925781 87.457031 111.886719 86.351562 C 112.011719 86.230469 111.765625 86.230469 112.5 85.984375 C 114.832031 88.316406 116.421875 86.109375 117.40625 90.277344 C 116.421875 91.136719 117.035156 91.011719 115.933594 91.257812 L 114.953125 89.175781 C 114.953125 89.296875 114.953125 89.296875 114.953125 89.417969 C 114.460938 91.382812 114.339844 90.402344 113.480469 91.75 C 112.621094 93.222656 113.601562 93.34375 111.886719 93.832031 L 112.007812 91.503906 C 110.167969 91.257812 111.273438 91.746094 110.414062 91.136719 C 111.519531 90.402344 112.007812 90.03125 112.007812 88.5625 C 111.640625 88.070312 110.414062 87.457031 109.925781 87.335938 C 108.453125 88.683594 107.226562 88.808594 106.125 90.523438 C 104.898438 92.605469 106.246094 93.589844 104.039062 95.425781 C 103.183594 95.917969 103.796875 95.796875 102.816406 95.917969 C 102.203125 94.691406 103.183594 92.730469 103.796875 91.625 C 104.777344 90.15625 105.511719 88.929688 106.617188 88.4375 L 106.125 88.316406 L 106.003906 88.316406 C 103.796875 87.824219 106.738281 88.929688 105.265625 88.191406 C 106.125 87.703125 106.367188 87.703125 106.980469 86.96875 Z M 101.21875 72.253906 C 101.09375 70.90625 100.851562 70.292969 100.972656 68.699219 C 101.339844 66.617188 102.445312 66.738281 103.058594 66.738281 L 101.464844 72.746094 L 99.992188 74.460938 C 99.625 73.480469 100.484375 72.992188 101.21875 72.253906 Z M 101.21875 72.253906 " fill-opacity="1" fill-rule="evenodd"/><path fill="#358d33" d="M 167.671875 313.664062 C 138.125 312.808594 112.746094 302.628906 91.65625 282.890625 C 122.0625 265.726562 161.664062 256.164062 210.707031 254.324219 C 278.140625 257.757812 323.136719 243.167969 345.695312 210.308594 C 319.210938 277.496094 259.871094 311.824219 167.671875 313.664062 Z M 167.671875 313.664062 " fill-opacity="1" fill-rule="evenodd"/><path stroke-linecap="butt" transform="matrix(2.062202, 0, 0, 2.062202, 13.551575, 239.29935)" fill="none" stroke-linejoin="miter" d="M 7.56889 -3.018681 L 42.645926 -3.018681 L 42.645926 8.969793 C 41.869299 8.225367 40.969548 7.658997 39.946673 7.268789 C 38.923798 6.872899 37.9085 6.603921 36.900778 6.45996 C 35.893057 6.317894 34.98194 6.245914 34.165535 6.245914 L 30.513492 6.245914 L 30.513492 37.956934 C 30.513492 39.163548 30.661241 40.353113 30.952949 41.525631 C 31.246552 42.692466 31.667068 43.516449 32.214495 43.999473 L 17.84689 43.999473 C 18.401894 43.516449 18.826198 42.682995 19.117907 41.502901 C 19.41151 40.313335 19.559258 39.116192 19.559258 37.909579 L 19.559258 6.245914 L 16.049282 6.245914 C 15.265077 6.245914 14.361538 6.317894 13.338663 6.45996 C 12.315788 6.603921 11.30049 6.872899 10.292768 7.268789 C 9.285047 7.658997 8.377719 8.225367 7.56889 8.969793 Z M 65.687133 44.724957 C 62.150637 44.724957 58.951312 44.096078 56.087262 42.834532 C 53.232683 41.56541 50.783465 39.82084 48.737715 37.600822 C 46.691965 35.373227 45.121663 32.798992 44.026807 29.881904 C 42.941423 26.955345 42.397784 23.818528 42.397784 20.473348 C 42.397784 17.126274 42.941423 13.989457 44.026807 11.064792 C 45.121663 8.138233 46.691965 5.563998 48.737715 3.34398 C 50.783465 1.116386 53.232683 -0.620608 56.087262 -1.865106 C 58.951312 -3.119075 62.150637 -3.744165 65.687133 -3.744165 C 69.168697 -3.744165 72.368022 -3.257352 75.28511 -2.281833 C 78.211669 -1.306313 80.615426 0.220423 82.494485 2.298374 C 82.07397 3.304202 81.678079 4.344124 81.304919 5.414355 C 80.931759 6.484585 80.598378 7.475259 80.304775 8.388269 C 80.011172 9.299386 79.774395 10.041917 79.592551 10.612075 C 79.416389 11.174657 79.329255 11.456894 79.329255 11.456894 C 79.329255 11.456894 79.11142 11.155714 78.675752 10.553355 C 78.240083 9.949101 77.541118 9.267184 76.582646 8.507605 C 75.62228 7.746131 74.392936 7.064214 72.894613 6.45996 C 71.403868 5.857601 69.604365 5.556421 67.494212 5.556421 C 64.990063 5.556421 62.665863 6.111425 60.525403 7.221434 C 58.383048 8.323866 56.655525 9.981302 55.339047 12.193743 C 54.022569 14.398607 53.363383 17.173629 53.363383 20.520703 C 53.363383 21.947046 53.490296 23.271101 53.74412 24.492868 C 54.007416 25.707059 54.38247 26.817067 54.874965 27.822894 C 54.708275 25.095228 55.143944 22.636539 56.183866 20.448723 C 57.229472 18.251436 58.733477 16.503078 60.692093 15.203648 C 62.658286 13.902323 64.925659 13.252608 67.494212 13.252608 C 68.501934 13.252608 69.502078 13.375732 70.492751 13.62198 C 71.483425 13.866333 72.360445 14.199715 73.121919 14.62023 C 73.881498 15.040745 74.392936 15.497251 74.656232 15.987852 L 74.656232 26.752664 C 73.680712 25.911634 72.316878 25.152054 70.562837 24.468243 C 68.81069 23.77875 66.975198 23.434003 65.05636 23.434003 C 63.105321 23.434003 61.349385 23.687828 59.78666 24.195477 C 58.233405 24.695549 57.123396 25.460811 56.456633 26.491263 C 55.78987 27.514138 55.799341 28.819251 56.481258 30.404707 C 57.81289 32.062143 59.434336 33.306641 61.345597 34.140095 C 63.264435 34.964077 65.313973 35.377016 67.494212 35.377016 C 69.604365 35.377016 71.403868 35.075836 72.894613 34.471582 C 74.392936 33.869222 75.62228 33.187306 76.582646 32.425832 C 77.541118 31.666253 78.240083 30.984336 78.675752 30.380082 C 79.11142 29.777722 79.329255 29.476542 79.329255 29.476542 C 79.329255 29.476542 79.416389 29.762569 79.592551 30.332727 C 79.774395 30.904779 80.011172 31.645416 80.304775 32.556533 C 80.598378 33.461967 80.931759 34.448852 81.304919 35.519082 C 81.678079 36.589312 82.07397 37.629235 82.494485 38.635062 C 80.615426 40.720591 78.211669 42.258692 75.28511 43.251259 C 72.368022 44.234356 69.168697 44.724957 65.687133 44.724957 Z M 105.050773 44.724957 C 101.514278 44.724957 98.314952 44.096078 95.452796 42.834532 C 92.598217 41.56541 90.147105 39.82084 88.101355 37.600822 C 86.055605 35.373227 84.485303 32.798992 83.392342 29.881904 C 82.305064 26.955345 81.761424 23.818528 81.761424 20.473348 C 81.761424 17.126274 82.305064 13.989457 83.392342 11.064792 C 84.485303 8.138233 86.055605 5.563998 88.101355 3.34398 C 90.147105 1.116386 92.598217 -0.620608 95.452796 -1.865106 C 98.314952 -3.119075 101.514278 -3.744165 105.050773 -3.744165 C 108.532337 -3.744165 111.731662 -3.257352 114.650645 -2.281833 C 117.577204 -1.306313 119.979066 0.220423 121.858125 2.298374 C 121.43761 3.304202 121.041719 4.344124 120.668559 5.414355 C 120.297294 6.484585 119.963912 7.475259 119.670309 8.388269 C 119.376706 9.299386 119.138035 10.041917 118.956191 10.612075 C 118.781923 11.174657 118.694789 11.456894 118.694789 11.456894 C 118.694789 11.456894 118.476955 11.155714 118.041286 10.553355 C 117.603723 9.949101 116.906652 9.267184 115.946286 8.507605 C 114.987815 7.746131 113.75847 7.064214 112.260148 6.45996 C 110.769402 5.857601 108.968006 5.556421 106.859747 5.556421 C 104.353703 5.556421 102.029503 6.111425 99.889043 7.221434 C 97.748582 8.323866 96.019166 9.981302 94.702688 12.193743 C 93.38621 14.398607 92.728918 17.173629 92.728918 20.520703 C 92.728918 23.835576 93.38621 26.585973 94.702688 28.775684 C 96.019166 30.9635 97.748582 32.613359 99.889043 33.723368 C 102.029503 34.8258 104.353703 35.377016 106.859747 35.377016 C 108.968006 35.377016 110.769402 35.075836 112.260148 34.471582 C 113.75847 33.869222 114.987815 33.187306 115.946286 32.425832 C 116.906652 31.666253 117.603723 30.984336 118.041286 30.380082 C 118.476955 29.777722 118.694789 29.476542 118.694789 29.476542 C 118.694789 29.476542 118.781923 29.762569 118.956191 30.332727 C 119.138035 30.904779 119.376706 31.645416 119.670309 32.556533 C 119.963912 33.461967 120.297294 34.448852 120.668559 35.519082 C 121.041719 36.589312 121.43761 37.629235 121.858125 38.635062 C 119.979066 40.720591 117.577204 42.258692 114.650645 43.251259 C 111.731662 44.234356 108.532337 44.724957 105.050773 44.724957 Z M 136.231413 43.999473 L 121.861913 43.999473 C 122.416918 43.516449 122.837433 42.692466 123.123459 41.525631 C 123.417062 40.353113 123.562917 39.163548 123.562917 37.956934 L 123.562917 3.023858 C 123.562917 1.794514 123.417062 0.604948 123.123459 -0.544839 C 122.837433 -1.702203 122.416918 -2.52808 121.861913 -3.018681 L 136.231413 -3.018681 C 135.683986 -2.52808 135.26347 -1.694627 134.969867 -0.522109 C 134.676264 0.644727 134.53041 1.841869 134.53041 3.071213 L 134.53041 15.69046 L 147.293617 15.69046 L 147.293617 3.023858 C 147.293617 1.794514 147.145868 0.604948 146.852265 -0.544839 C 146.558662 -1.702203 146.140041 -2.52808 145.592614 -3.018681 L 159.960219 -3.018681 C 159.405215 -2.52808 158.980911 -1.694627 158.687308 -0.522109 C 158.403176 0.644727 158.259216 1.841869 158.259216 3.071213 L 158.259216 37.909579 C 158.259216 39.116192 158.403176 40.313335 158.687308 41.502901 C 158.980911 42.682995 159.405215 43.516449 159.960219 43.999473 L 145.592614 43.999473 C 146.140041 43.516449 146.558662 42.692466 146.852265 41.525631 C 147.145868 40.353113 147.293617 39.163548 147.293617 37.956934 L 147.293617 24.468243 L 134.53041 24.468243 L 134.53041 37.909579 C 134.53041 39.116192 134.676264 40.313335 134.969867 41.502901 C 135.26347 42.682995 135.683986 43.516449 136.231413 43.999473 Z M 136.231413 43.999473 " stroke="#098d06" stroke-width="3.410862" stroke-opacity="1" stroke-miterlimit="4"/><g fill="#ffffff" fill-opacity="1"><g transform="translate(27.14922, 330.036242)"><g><path d="M 2.015625 -96.953125 L 74.34375 -96.953125 L 74.34375 -72.234375 C 72.738281 -73.773438 70.878906 -74.945312 68.765625 -75.75 C 66.660156 -76.550781 64.566406 -77.101562 62.484375 -77.40625 C 60.410156 -77.707031 58.535156 -77.859375 56.859375 -77.859375 L 49.328125 -77.859375 L 49.328125 -12.453125 C 49.328125 -9.972656 49.628906 -7.523438 50.234375 -5.109375 C 50.835938 -2.703125 51.707031 -1 52.84375 0 L 23.203125 0 C 24.347656 -1 25.21875 -2.722656 25.8125 -5.171875 C 26.414062 -7.617188 26.71875 -10.082031 26.71875 -12.5625 L 26.71875 -77.859375 L 19.484375 -77.859375 C 17.878906 -77.859375 16.019531 -77.707031 13.90625 -77.40625 C 11.800781 -77.101562 9.707031 -76.550781 7.625 -75.75 C 5.550781 -74.945312 3.679688 -73.773438 2.015625 -72.234375 Z M 2.015625 -96.953125 "/></g></g></g><g fill="#ffffff" fill-opacity="1"><g transform="translate(97.476208, 330.036242)"><g><path d="M 51.546875 1.5 C 44.242188 1.5 37.644531 0.195312 31.75 -2.40625 C 25.851562 -5.019531 20.796875 -8.617188 16.578125 -13.203125 C 12.359375 -17.796875 9.125 -23.101562 6.875 -29.125 C 4.632812 -35.15625 3.515625 -41.625 3.515625 -48.53125 C 3.515625 -55.425781 4.632812 -61.882812 6.875 -67.90625 C 9.125 -73.9375 12.359375 -79.242188 16.578125 -83.828125 C 20.796875 -88.421875 25.851562 -92.003906 31.75 -94.578125 C 37.644531 -97.160156 44.242188 -98.453125 51.546875 -98.453125 C 58.710938 -98.453125 65.304688 -97.445312 71.328125 -95.4375 C 77.359375 -93.4375 82.316406 -90.289062 86.203125 -86 C 85.328125 -83.925781 84.503906 -81.78125 83.734375 -79.5625 C 82.960938 -77.351562 82.273438 -75.3125 81.671875 -73.4375 C 81.078125 -71.5625 80.59375 -70.035156 80.21875 -68.859375 C 79.851562 -67.691406 79.671875 -67.109375 79.671875 -67.109375 C 79.671875 -67.109375 79.21875 -67.726562 78.3125 -68.96875 C 77.40625 -70.207031 75.960938 -71.613281 73.984375 -73.1875 C 72.015625 -74.757812 69.488281 -76.164062 66.40625 -77.40625 C 63.320312 -78.644531 59.601562 -79.265625 55.25 -79.265625 C 50.09375 -79.265625 45.304688 -78.125 40.890625 -75.84375 C 36.472656 -73.570312 32.90625 -70.160156 30.1875 -65.609375 C 27.476562 -61.054688 26.125 -55.328125 26.125 -48.421875 C 26.125 -45.472656 26.390625 -42.742188 26.921875 -40.234375 C 27.460938 -37.722656 28.234375 -35.429688 29.234375 -33.359375 C 28.898438 -38.984375 29.800781 -44.054688 31.9375 -48.578125 C 34.082031 -53.097656 37.179688 -56.695312 41.234375 -59.375 C 45.296875 -62.050781 49.96875 -63.390625 55.25 -63.390625 C 57.332031 -63.390625 59.394531 -63.140625 61.4375 -62.640625 C 63.476562 -62.140625 65.285156 -61.453125 66.859375 -60.578125 C 68.429688 -59.710938 69.488281 -58.773438 70.03125 -57.765625 L 70.03125 -35.5625 C 68.019531 -37.300781 65.203125 -38.875 61.578125 -40.28125 C 57.960938 -41.6875 54.179688 -42.390625 50.234375 -42.390625 C 46.210938 -42.390625 42.59375 -41.867188 39.375 -40.828125 C 36.164062 -39.796875 33.875 -38.222656 32.5 -36.109375 C 31.125 -34.003906 31.140625 -31.3125 32.546875 -28.03125 C 35.296875 -24.613281 38.644531 -22.050781 42.59375 -20.34375 C 46.550781 -18.632812 50.769531 -17.78125 55.25 -17.78125 C 59.601562 -17.78125 63.320312 -18.398438 66.40625 -19.640625 C 69.488281 -20.878906 72.015625 -22.285156 73.984375 -23.859375 C 75.960938 -25.429688 77.40625 -26.835938 78.3125 -28.078125 C 79.21875 -29.316406 79.671875 -29.9375 79.671875 -29.9375 C 79.671875 -29.9375 79.851562 -29.347656 80.21875 -28.171875 C 80.59375 -27.003906 81.078125 -25.484375 81.671875 -23.609375 C 82.273438 -21.734375 82.960938 -19.691406 83.734375 -17.484375 C 84.503906 -15.273438 85.328125 -13.128906 86.203125 -11.046875 C 82.316406 -6.765625 77.359375 -3.601562 71.328125 -1.5625 C 65.304688 0.476562 58.710938 1.5 51.546875 1.5 Z M 51.546875 1.5 "/></g></g></g><g fill="#ffffff" fill-opacity="1"><g transform="translate(178.653797, 330.036242)"><g><path d="M 51.546875 1.5 C 44.242188 1.5 37.644531 0.195312 31.75 -2.40625 C 25.851562 -5.019531 20.796875 -8.617188 16.578125 -13.203125 C 12.359375 -17.796875 9.125 -23.101562 6.875 -29.125 C 4.632812 -35.15625 3.515625 -41.625 3.515625 -48.53125 C 3.515625 -55.425781 4.632812 -61.882812 6.875 -67.90625 C 9.125 -73.9375 12.359375 -79.242188 16.578125 -83.828125 C 20.796875 -88.421875 25.851562 -92.003906 31.75 -94.578125 C 37.644531 -97.160156 44.242188 -98.453125 51.546875 -98.453125 C 58.710938 -98.453125 65.304688 -97.445312 71.328125 -95.4375 C 77.359375 -93.4375 82.316406 -90.289062 86.203125 -86 C 85.328125 -83.925781 84.503906 -81.78125 83.734375 -79.5625 C 82.960938 -77.351562 82.273438 -75.3125 81.671875 -73.4375 C 81.078125 -71.5625 80.59375 -70.035156 80.21875 -68.859375 C 79.851562 -67.691406 79.671875 -67.109375 79.671875 -67.109375 C 79.671875 -67.109375 79.21875 -67.726562 78.3125 -68.96875 C 77.40625 -70.207031 75.960938 -71.613281 73.984375 -73.1875 C 72.015625 -74.757812 69.488281 -76.164062 66.40625 -77.40625 C 63.320312 -78.644531 59.601562 -79.265625 55.25 -79.265625 C 50.09375 -79.265625 45.304688 -78.125 40.890625 -75.84375 C 36.472656 -73.570312 32.90625 -70.160156 30.1875 -65.609375 C 27.476562 -61.054688 26.125 -55.328125 26.125 -48.421875 C 26.125 -41.585938 27.476562 -35.910156 30.1875 -31.390625 C 32.90625 -26.867188 36.472656 -23.46875 40.890625 -21.1875 C 45.304688 -18.914062 50.09375 -17.78125 55.25 -17.78125 C 59.601562 -17.78125 63.320312 -18.398438 66.40625 -19.640625 C 69.488281 -20.878906 72.015625 -22.285156 73.984375 -23.859375 C 75.960938 -25.429688 77.40625 -26.835938 78.3125 -28.078125 C 79.21875 -29.316406 79.671875 -29.9375 79.671875 -29.9375 C 79.671875 -29.9375 79.851562 -29.347656 80.21875 -28.171875 C 80.59375 -27.003906 81.078125 -25.484375 81.671875 -23.609375 C 82.273438 -21.734375 82.960938 -19.691406 83.734375 -17.484375 C 84.503906 -15.273438 85.328125 -13.128906 86.203125 -11.046875 C 82.316406 -6.765625 77.359375 -3.601562 71.328125 -1.5625 C 65.304688 0.476562 58.710938 1.5 51.546875 1.5 Z M 51.546875 1.5 "/></g></g></g><g fill="#ffffff" fill-opacity="1"><g transform="translate(262.845489, 330.036242)"><g><path d="M 31.640625 0 L 2.015625 0 C 3.148438 -1 4.019531 -2.703125 4.625 -5.109375 C 5.226562 -7.523438 5.53125 -9.972656 5.53125 -12.453125 L 5.53125 -84.5 C 5.53125 -87.039062 5.226562 -89.5 4.625 -91.875 C 4.019531 -94.25 3.148438 -95.941406 2.015625 -96.953125 L 31.640625 -96.953125 C 30.503906 -95.941406 29.632812 -94.234375 29.03125 -91.828125 C 28.425781 -89.421875 28.125 -86.941406 28.125 -84.390625 L 28.125 -58.375 L 54.453125 -58.375 L 54.453125 -84.5 C 54.453125 -87.039062 54.148438 -89.5 53.546875 -91.875 C 52.941406 -94.25 52.070312 -95.941406 50.9375 -96.953125 L 80.578125 -96.953125 C 79.441406 -95.941406 78.570312 -94.234375 77.96875 -91.828125 C 77.363281 -89.421875 77.0625 -86.941406 77.0625 -84.390625 L 77.0625 -12.5625 C 77.0625 -10.082031 77.363281 -7.617188 77.96875 -5.171875 C 78.570312 -2.722656 79.441406 -1 80.578125 0 L 50.9375 0 C 52.070312 -1 52.941406 -2.703125 53.546875 -5.109375 C 54.148438 -7.523438 54.453125 -9.972656 54.453125 -12.453125 L 54.453125 -40.28125 L 28.125 -40.28125 L 28.125 -12.5625 C 28.125 -10.082031 28.425781 -7.617188 29.03125 -5.171875 C 29.632812 -2.722656 30.503906 -1 31.640625 0 Z M 31.640625 0 "/></g></g></g><g fill="#ffffff" fill-opacity="1"><g transform="translate(343.439467, 330.036242)"><g/></g></g></svg>